<svg aria-hidden="true" style="position: absolute; width: 0; height: 0; overflow: hidden;" version="1.1" xmlns="http://www.w3.org/2000/svg" xmlns:xlink="http://www.w3.org/1999/xlink">
<defs>
<symbol id="icon-eye" viewBox="0 0 32 32">
<path d="M16 9v0c9 0 13 7 13 7s-4 7-13 7c-9 0-13-7-13-7s4-7 13-7zM16 20c2.209 0 4-1.791 4-4s-1.791-4-4-4c-2.209 0-4 1.791-4 4s1.791 4 4 4v0zM16 19v0c-1.657 0-3-1.343-3-3s1.343-3 3-3c1.657 0 3 1.343 3 3s-1.343 3-3 3zM16 17c0.552 0 1-0.448 1-1s-0.448-1-1-1c-0.552 0-1 0.448-1 1s0.448 1 1 1v0z"></path>
</symbol>
<symbol id="icon-cloud-sun" viewBox="0 0 32 32">
<path d="M24.953 10.219v0c1.228 0.992 2.020 2.501 2.046 4.195 1.768 0.771 3.001 2.534 3.001 4.585 0 2.756-2.238 5-4.999 5h-17.001c-2.767 0-4.999-2.239-4.999-5 0-2.051 1.24-3.818 3.012-4.588-0.008-0.136-0.012-0.273-0.012-0.412 0-3.866 3.134-7 7-7 0.522 0 1.030 0.057 1.519 0.165v0c0.878-1.87 2.778-3.165 4.981-3.165 3.038 0 5.5 2.462 5.5 5.5 0 0.244-0.016 0.484-0.047 0.719zM23.999 9.599c0.001-0.033 0.001-0.066 0.001-0.099 0-2.485-2.015-4.5-4.5-4.5-1.749 0-3.265 0.998-4.010 2.456 1.253 0.477 2.334 1.304 3.124 2.362 0.839-0.518 1.828-0.817 2.886-0.817 0.9 0 1.749 0.216 2.499 0.599v0zM19.5 0c-0.276 0-0.5 0.216-0.5 0.495v2.009c0 0.274 0.232 0.495 0.5 0.495 0.276 0 0.5-0.216 0.5-0.495v-2.009c0-0.274-0.232-0.495-0.5-0.495v0zM26.233 2.789c-0.195-0.195-0.506-0.201-0.704-0.003l-1.421 1.421c-0.193 0.193-0.186 0.514 0.003 0.704 0.195 0.195 0.506 0.201 0.704 0.003l1.421-1.421c0.193-0.193 0.186-0.514-0.003-0.704v0zM29.022 9.522c0-0.276-0.216-0.5-0.495-0.5h-2.009c-0.274 0-0.495 0.232-0.495 0.5 0 0.276 0.216 0.5 0.495 0.5h2.009c0.274 0 0.495-0.232 0.495-0.5v0zM12.767 2.789c-0.195 0.195-0.201 0.506-0.003 0.704l1.421 1.421c0.193 0.193 0.514 0.186 0.704-0.003 0.195-0.195 0.201-0.506 0.003-0.704l-1.421-1.421c-0.193-0.193-0.514-0.186-0.704 0.003v0z"></path>
</symbol>
<symbol id="icon-sun" viewBox="0 0 32 32">
<path d="M16.529 22c3.038 0 5.5-2.462 5.5-5.5s-2.462-5.5-5.5-5.5c-3.038 0-5.5 2.462-5.5 5.5s2.462 5.5 5.5 5.5v0zM16.529 7c-0.276 0-0.5 0.216-0.5 0.495v2.009c0 0.274 0.232 0.495 0.5 0.495 0.276 0 0.5-0.216 0.5-0.495v-2.009c0-0.274-0.232-0.495-0.5-0.495v0zM23.267 9.791c-0.195-0.195-0.506-0.201-0.704-0.003l-1.421 1.421c-0.193 0.193-0.186 0.514 0.003 0.704 0.195 0.195 0.506 0.201 0.704 0.003l1.421-1.421c0.193-0.193 0.186-0.514-0.003-0.704v0zM26.058 16.529c0-0.276-0.216-0.5-0.495-0.5h-2.009c-0.274 0-0.495 0.232-0.495 0.5 0 0.276 0.216 0.5 0.495 0.5h2.009c0.274 0 0.495-0.232 0.495-0.5v0zM23.267 23.267c0.195-0.195 0.201-0.506 0.003-0.704l-1.421-1.421c-0.193-0.193-0.514-0.186-0.704 0.003-0.195 0.195-0.201 0.506-0.003 0.704l1.421 1.421c0.193 0.193 0.514 0.186 0.704-0.003v0zM16.529 26.058c0.276 0 0.5-0.216 0.5-0.495v-2.009c0-0.274-0.232-0.495-0.5-0.495-0.276 0-0.5 0.216-0.5 0.495v2.009c0 0.274 0.232 0.495 0.5 0.495v0zM9.791 23.267c0.195 0.195 0.506 0.201 0.704 0.003l1.421-1.421c0.193-0.193 0.186-0.514-0.003-0.704-0.195-0.195-0.506-0.201-0.704-0.003l-1.421 1.421c-0.193 0.193-0.186 0.514 0.003 0.704v0zM7 16.529c0 0.276 0.216 0.5 0.495 0.5h2.009c0.274 0 0.495-0.232 0.495-0.5 0-0.276-0.216-0.5-0.495-0.5h-2.009c-0.274 0-0.495 0.232-0.495 0.5v0zM9.791 9.791c-0.195 0.195-0.201 0.506-0.003 0.704l1.421 1.421c0.193 0.193 0.514 0.186 0.704-0.003 0.195-0.195 0.201-0.506 0.003-0.704l-1.421-1.421c-0.193-0.193-0.514-0.186-0.704 0.003v0z"></path>
</symbol>
<symbol id="icon-sunrise" viewBox="0 0 32 32">
<path d="M13.612 20h-2.561c-0.015-0.165-0.022-0.331-0.022-0.5 0-3.038 2.462-5.5 5.5-5.5s5.5 2.462 5.5 5.5c0 0.169-0.008 0.335-0.022 0.5v0h-2.561l-2.917-2.5-2.917 2.5zM16.529 10c-0.276 0-0.5 0.216-0.5 0.495v2.009c0 0.274 0.232 0.495 0.5 0.495 0.276 0 0.5-0.216 0.5-0.495v-2.009c0-0.274-0.232-0.495-0.5-0.495v0 0zM23.267 12.791c-0.195-0.195-0.506-0.201-0.704-0.003l-1.421 1.421c-0.193 0.193-0.186 0.514 0.003 0.704 0.195 0.195 0.506 0.201 0.704 0.003l1.421-1.421c0.193-0.193 0.186-0.514-0.003-0.704v0 0zM26.058 19.529c0-0.276-0.216-0.5-0.495-0.5h-2.009c-0.274 0-0.495 0.232-0.495 0.5 0 0.276 0.216 0.5 0.495 0.5h2.009c0.274 0 0.495-0.232 0.495-0.5v0 0zM7 19.529c0 0.276 0.216 0.5 0.495 0.5h2.009c0.274 0 0.495-0.232 0.495-0.5 0-0.276-0.216-0.5-0.495-0.5h-2.009c-0.274 0-0.495 0.232-0.495 0.5v0 0zM7.566 22c-0.281 0-0.508 0.232-0.508 0.5 0 0.276 0.227 0.5 0.508 0.5h6.075l2.917-2.5 2.917 2.5h6.075c0.281 0 0.508-0.232 0.508-0.5 0-0.276-0.227-0.5-0.508-0.5h-5.492l-3.5-3-3.5 3h-5.492zM9.791 12.791c-0.195 0.195-0.201 0.506-0.003 0.704l1.421 1.421c0.193 0.193 0.514 0.186 0.704-0.003 0.195-0.195 0.201-0.506 0.003-0.704l-1.421-1.421c-0.193-0.193-0.514-0.186-0.704 0.003v0 0z"></path>
</symbol>
<symbol id="icon-sunset" viewBox="0 0 32 32">
<path d="M21.978 18c0.015-0.165 0.022-0.331 0.022-0.5 0-3.038-2.462-5.5-5.5-5.5s-5.5 2.462-5.5 5.5c0 0.169 0.008 0.335 0.022 0.5h10.955zM16.5 8c-0.276 0-0.5 0.216-0.5 0.495v2.009c0 0.274 0.232 0.495 0.5 0.495 0.276 0 0.5-0.216 0.5-0.495v-2.009c0-0.274-0.232-0.495-0.5-0.495v0 0zM23.238 10.791c-0.195-0.195-0.506-0.201-0.704-0.003l-1.421 1.421c-0.193 0.193-0.186 0.514 0.003 0.704 0.195 0.195 0.506 0.201 0.704 0.003l1.421-1.421c0.193-0.193 0.186-0.514-0.003-0.704v0 0zM26.029 17.529c0-0.276-0.216-0.5-0.495-0.5h-2.009c-0.274 0-0.495 0.232-0.495 0.5 0 0.276 0.216 0.5 0.495 0.5h2.009c0.274 0 0.495-0.232 0.495-0.5v0 0zM6.971 17.529c0 0.276 0.216 0.5 0.495 0.5h2.009c0.274 0 0.495-0.232 0.495-0.5 0-0.276-0.216-0.5-0.495-0.5h-2.009c-0.274 0-0.495 0.232-0.495 0.5v0 0zM9.762 10.791c-0.195 0.195-0.201 0.506-0.003 0.704l1.421 1.421c0.193 0.193 0.514 0.186 0.704-0.003 0.195-0.195 0.201-0.506 0.003-0.704l-1.421-1.421c-0.193-0.193-0.514-0.186-0.704 0.003v0 0zM7.537 21c-0.281 0-0.508-0.232-0.508-0.5 0-0.276 0.227-0.5 0.508-0.5h6.075l2.917 2.5 2.917-2.5h6.075c0.281 0 0.508 0.232 0.508 0.5 0 0.276-0.227 0.5-0.508 0.5h-5.492l-3.5 3-3.5-3h-5.492z"></path>
</symbol>
<symbol id="icon-raindrops" viewBox="0 0 32 32">
<path d="M9 11.5c0-1.684 2.511-4.5 2.511-4.5s2.489 2.816 2.489 4.5c0 1.2-0.813 2.5-2.489 2.5s-2.511-1.2-2.511-2.5v0zM19 15.5c0-1.684 2.511-4.5 2.511-4.5s2.489 2.816 2.489 4.5c0 1.2-0.813 2.5-2.489 2.5s-2.511-1.2-2.511-2.5v0zM12 23.5c0-1.684 2.511-4.5 2.511-4.5s2.489 2.816 2.489 4.5c0 1.2-0.813 2.5-2.489 2.5s-2.511-1.2-2.511-2.5v0z"></path>
</symbol>
<symbol id="icon-raindrop" viewBox="0 0 32 32">
<path d="M12 18.211c0-2.526 4-8.211 4-8.211s4 5.684 4 8.211c0 2.093-1.791 3.789-4 3.789s-4-1.697-4-3.789z"></path>
</symbol>
<symbol id="icon-wind" viewBox="0 0 32 32">
<path d="M30 14c0-2.209-1.795-4-4-4-2.209 0-4 1.789-4 4h2c0-1.105 0.888-2 2-2 1.105 0 2 0.888 2 2 0 1.105-0.89 2-2.004 2h-22.996v2h23.002c2.208 0 3.998-1.795 3.998-4v0zM21 10c0-2.209-1.795-4-4-4-2.209 0-4 1.789-4 3.997v0.003h2c0-1.105 0.888-2 2-2 1.105 0 2 0.888 2 2 0 1.105-0.897 2-2.006 2h-11.994v2h12.004c2.207 0 3.996-1.795 3.996-4v0zM26 23c0 1.657-1.347 3-3 3v0c-1.657 0-3-1.342-3-2.991v-0.009h2c0 0.552 0.444 1 1 1v0c0.552 0 1-0.444 1-1v0c0-0.552-0.449-1-1.007-1h-13.993v-2h14c1.657 0 3 1.347 3 3v0 0z"></path>
</symbol>
<symbol id="icon-compass-west" viewBox="0 0 32 32">
<path d="M16 3v0c7.18 0 13 5.82 13 13s-5.82 13-13 13c-7.18 0-13-5.82-13-13s5.82-13 13-13zM16 4c-6.627 0-12 5.373-12 12s5.373 12 12 12c6.627 0 12-5.373 12-12s-5.373-12-12-12v0zM16 5c-6.075 0-11 4.925-11 11s4.925 11 11 11c6.075 0 11-4.925 11-11s-4.925-11-11-11v0zM16 13c1.657 0 3 1.347 3 3 0 1.657-1.337 3-3 3-2 0-9-3-9-3s7-3 9-3v0zM16 14c-1.105 0-2 0.895-2 2s0.895 2 2 2c1.105 0 2-0.895 2-2s-0.895-2-2-2v0z"></path>
</symbol>
<symbol id="icon-compass" viewBox="0 0 32 32">
<path d="M16.5 29v0c-6.904 0-12.5-5.596-12.5-12.5s5.596-12.5 12.5-12.5c6.904 0 12.5 5.596 12.5 12.5s-5.596 12.5-12.5 12.5zM16.5 28c6.351 0 11.5-5.149 11.5-11.5s-5.149-11.5-11.5-11.5c-6.351 0-11.5 5.149-11.5 11.5s5.149 11.5 11.5 11.5v0zM16.5 27c5.799 0 10.5-4.701 10.5-10.5s-4.701-10.5-10.5-10.5c-5.799 0-10.5 4.701-10.5 10.5s4.701 10.5 10.5 10.5v0zM18.268 18.268c-1.768 1.768-8.485 4.95-8.485 4.95s3.182-6.718 4.95-8.485c1.768-1.768 8.485-4.95 8.485-4.95s-3.182 6.717-4.95 8.485v0zM15.439 17.561c0.586 0.586 1.536 0.586 2.121 0s0.586-1.536 0-2.121c-0.586-0.586-1.536-0.586-2.121 0s-0.586 1.536 0 2.121v0zM16.5 7v0c0.268 0 0.5 0.22 0.5 0.49v3.019c0 0.275-0.224 0.49-0.5 0.49-0.268 0-0.5-0.22-0.5-0.49v-3.019c0-0.275 0.224-0.49 0.5-0.49zM26.043 16.543v0c0 0.268-0.22 0.5-0.49 0.5h-3.019c-0.275 0-0.49-0.224-0.49-0.5 0-0.268 0.22-0.5 0.49-0.5h3.019c0.275 0 0.49 0.224 0.49 0.5zM16.5 26.087v0c-0.268 0-0.5-0.22-0.5-0.49v-3.019c0-0.275 0.224-0.49 0.5-0.49 0.268 0 0.5 0.22 0.5 0.49v3.019c0 0.275-0.224 0.49-0.5 0.49zM6.957 16.543v0c0-0.268 0.22-0.5 0.49-0.5h3.019c0.275 0 0.49 0.224 0.49 0.5 0 0.268-0.22 0.5-0.49 0.5h-3.019c-0.275 0-0.49-0.224-0.49-0.5z"></path>
</symbol>
<symbol id="icon-thermometer-half" viewBox="0 0 32 32">
<path d="M16.986 23.166c1.173 0.408 2.014 1.523 2.014 2.834 0 1.657-1.343 3-3 3s-3-1.343-3-3c0-1.311 0.841-2.426 2.014-2.834-0.009-0.055-0.014-0.111-0.014-0.168v-9.995c0-0.547 0.448-1.002 1-1.002 0.556 0 1 0.449 1 1.002v9.995c0 0.057-0.005 0.113-0.014 0.168v0zM18 22.535v-18.532c0-1.107-0.888-2.004-2-2.004-1.105 0-2 0.89-2 2.004v18.532c-1.196 0.692-2 1.984-2 3.465 0 2.209 1.791 4 4 4s4-1.791 4-4c0-1.481-0.804-2.773-2-3.465zM19.969 21.5c1.246 1.099 2.031 2.708 2.031 4.5 0 3.314-2.686 6-6 6s-6-2.686-6-6c0-1.792 0.786-3.401 2.031-4.5-0.021-0.165-0.031-0.332-0.031-0.503v-16.994c0-2.205 1.791-4.003 4-4.003 2.205 0 4 1.792 4 4.003v16.994c0 0.17-0.011 0.338-0.031 0.503v0 0z"></path>
</symbol>
</defs>
</svg>
